<svg style="display: none">
	<symbol id="vk" width="30" height="18" viewBox="0 0 30 18">
		<g width="30" height="18">
			<path
				d="M29.3093 1.20789C29.5203 0.497368 29.3093 0 28.3245 0H25.0418C24.1977 0 23.8226 0.45 23.6115 0.947368C23.6115 0.947368 21.9468 5.06842 19.5786 7.72105C18.8048 8.50263 18.4766 8.73947 18.0545 8.73947C17.8435 8.73947 17.5387 8.50263 17.5387 7.79211V1.20789C17.5387 0.355263 17.3042 0 16.6008 0H11.4423C10.9265 0 10.5982 0.402631 10.5982 0.757894C10.5982 1.56316 11.7706 1.75263 11.9113 3.97895V8.85789C11.9113 9.92368 11.7237 10.1132 11.3017 10.1132C10.1996 10.1132 7.47973 5.99211 5.8853 1.25526C5.55704 0.378948 5.25222 0 4.40811 0H1.12548C0.187579 0 0 0.45 0 0.947368C0 1.82368 1.10203 6.18158 5.18188 11.9368C7.90178 15.8684 11.7237 18 15.1939 18C17.2807 18 17.5387 17.5263 17.5387 16.7211V13.7368C17.5387 12.7895 17.7262 12.6 18.4062 12.6C18.8986 12.6 19.7193 12.8368 21.6654 14.7316C23.8929 16.9816 24.2681 18 25.5108 18H28.7934C29.7313 18 30.2003 17.5263 29.9189 16.6026C29.6141 15.6789 28.559 14.3289 27.1521 12.7184C26.3783 11.7947 25.2294 10.8237 24.9012 10.3263C24.4088 9.68684 24.5494 9.40263 24.9012 8.85789C24.9012 8.83421 28.9107 3.15 29.3093 1.20789V1.20789Z"
			/>
		</g>
	</symbol>

	<symbol id="youtube" viewBox="0 0 26 18" width="26" height="18">
		<g width="26" height="18">
			<path
				d="M17.42 9.50302L10.8774 12.7029C10.6216 12.8409 9.75 12.6576 9.75 12.3688V5.7974C9.75 5.5054 10.6286 5.32219 10.8851 5.46779L17.1476 8.83768C17.4104 8.98521 17.6852 9.35999 17.42 9.50302ZM26 5.64232C26 2.52666 23.4452 0 20.2941 0H5.70537C2.55433 0 0 2.52666 0 5.64232V12.3562C0 15.4732 2.55433 18 5.70537 18H20.2941C23.4452 18 26 15.4732 26 12.3562V5.64232Z"
			/>
		</g>
	</symbol>

	<symbol id="inst" viewBox="0 0 511 511.9">
		<g>
			<path
				d="m510.949219 150.5c-1.199219-27.199219-5.597657-45.898438-11.898438-62.101562-6.5-17.199219-16.5-32.597657-29.601562-45.398438-12.800781-13-28.300781-23.101562-45.300781-29.5-16.296876-6.300781-34.898438-10.699219-62.097657-11.898438-27.402343-1.300781-36.101562-1.601562-105.601562-1.601562s-78.199219.300781-105.5 1.5c-27.199219 1.199219-45.898438 5.601562-62.097657 11.898438-17.203124 6.5-32.601562 16.5-45.402343 29.601562-13 12.800781-23.097657 28.300781-29.5 45.300781-6.300781 16.300781-10.699219 34.898438-11.898438 62.097657-1.300781 27.402343-1.601562 36.101562-1.601562 105.601562s.300781 78.199219 1.5 105.5c1.199219 27.199219 5.601562 45.898438 11.902343 62.101562 6.5 17.199219 16.597657 32.597657 29.597657 45.398438 12.800781 13 28.300781 23.101562 45.300781 29.5 16.300781 6.300781 34.898438 10.699219 62.101562 11.898438 27.296876 1.203124 36 1.5 105.5 1.5s78.199219-.296876 105.5-1.5c27.199219-1.199219 45.898438-5.597657 62.097657-11.898438 34.402343-13.300781 61.601562-40.5 74.902343-74.898438 6.296876-16.300781 10.699219-34.902343 11.898438-62.101562 1.199219-27.300781 1.5-36 1.5-105.5s-.101562-78.199219-1.300781-105.5zm-46.097657 209c-1.101562 25-5.300781 38.5-8.800781 47.5-8.601562 22.300781-26.300781 40-48.601562 48.601562-9 3.5-22.597657 7.699219-47.5 8.796876-27 1.203124-35.097657 1.5-103.398438 1.5s-76.5-.296876-103.402343-1.5c-25-1.097657-38.5-5.296876-47.5-8.796876-11.097657-4.101562-21.199219-10.601562-29.398438-19.101562-8.5-8.300781-15-18.300781-19.101562-29.398438-3.5-9-7.699219-22.601562-8.796876-47.5-1.203124-27-1.5-35.101562-1.5-103.402343s.296876-76.5 1.5-103.398438c1.097657-25 5.296876-38.5 8.796876-47.5 4.101562-11.101562 10.601562-21.199219 19.203124-29.402343 8.296876-8.5 18.296876-15 29.398438-19.097657 9-3.5 22.601562-7.699219 47.5-8.800781 27-1.199219 35.101562-1.5 103.398438-1.5 68.402343 0 76.5.300781 103.402343 1.5 25 1.101562 38.5 5.300781 47.5 8.800781 11.097657 4.097657 21.199219 10.597657 29.398438 19.097657 8.5 8.300781 15 18.300781 19.101562 29.402343 3.5 9 7.699219 22.597657 8.800781 47.5 1.199219 27 1.5 35.097657 1.5 103.398438s-.300781 76.300781-1.5 103.300781zm0 0"
			/>
			<path
				d="m256.449219 124.5c-72.597657 0-131.5 58.898438-131.5 131.5s58.902343 131.5 131.5 131.5c72.601562 0 131.5-58.898438 131.5-131.5s-58.898438-131.5-131.5-131.5zm0 216.800781c-47.097657 0-85.300781-38.199219-85.300781-85.300781s38.203124-85.300781 85.300781-85.300781c47.101562 0 85.300781 38.199219 85.300781 85.300781s-38.199219 85.300781-85.300781 85.300781zm0 0"
			/>
			<path
				d="m423.851562 119.300781c0 16.953125-13.746093 30.699219-30.703124 30.699219-16.953126 0-30.699219-13.746094-30.699219-30.699219 0-16.957031 13.746093-30.699219 30.699219-30.699219 16.957031 0 30.703124 13.742188 30.703124 30.699219zm0 0"
			/>
		</g>
	</symbol>

	<symbol id="tube" viewBox="0 -62 512.00199 512">
		<g>
			<path
				d="m334.808594 170.992188-113.113282-61.890626c-6.503906-3.558593-14.191406-3.425781-20.566406.351563-6.378906 3.78125-10.183594 10.460937-10.183594 17.875v122.71875c0 7.378906 3.78125 14.046875 10.117188 17.832031 3.308594 1.976563 6.976562 2.96875 10.652344 2.96875 3.367187 0 6.742187-.832031 9.847656-2.503906l113.117188-60.824219c6.714843-3.613281 10.90625-10.59375 10.9375-18.222656.027343-7.628906-4.113282-14.640625-10.808594-18.304687zm-113.859375 63.617187v-91.71875l84.539062 46.257813zm0 0"
			/>
			<path
				d="m508.234375 91.527344-.023437-.234375c-.433594-4.121094-4.75-40.777344-22.570313-59.421875-20.597656-21.929688-43.949219-24.59375-55.179687-25.871094-.929688-.105469-1.78125-.203125-2.542969-.304688l-.894531-.09375c-67.6875-4.921874-169.910157-5.5937495-170.933594-5.59765575l-.089844-.00390625-.089844.00390625c-1.023437.00390625-103.246094.67578175-171.542968 5.59765575l-.902344.09375c-.726563.097657-1.527344.1875-2.398438.289063-11.101562 1.28125-34.203125 3.949219-54.859375 26.671875-16.972656 18.445312-21.878906 54.316406-22.382812 58.347656l-.058594.523438c-.152344 1.714844-3.765625 42.539062-3.765625 83.523437v38.3125c0 40.984375 3.613281 81.808594 3.765625 83.527344l.027344.257813c.433593 4.054687 4.746093 40.039062 22.484375 58.691406 19.367187 21.195312 43.855468 24 57.027344 25.507812 2.082031.238282 3.875.441406 5.097656.65625l1.183594.164063c39.082031 3.71875 161.617187 5.550781 166.8125 5.625l.15625.003906.15625-.003906c1.023437-.003907 103.242187-.675781 170.929687-5.597657l.894531-.09375c.855469-.113281 1.816406-.214843 2.871094-.324218 11.039062-1.171875 34.015625-3.605469 54.386719-26.019532 16.972656-18.449218 21.882812-54.320312 22.382812-58.347656l.058594-.523437c.152344-1.71875 3.769531-42.539063 3.769531-83.523438v-38.3125c-.003906-40.984375-3.617187-81.804687-3.769531-83.523437zm-26.238281 121.835937c0 37.933594-3.3125 77-3.625 80.585938-1.273438 9.878906-6.449219 32.574219-14.71875 41.5625-12.75 14.027343-25.847656 15.417969-35.410156 16.429687-1.15625.121094-2.226563.238282-3.195313.359375-65.46875 4.734375-163.832031 5.460938-168.363281 5.488281-5.082032-.074218-125.824219-1.921874-163.714844-5.441406-1.941406-.316406-4.039062-.558594-6.25-.808594-11.214844-1.285156-26.566406-3.042968-38.371094-16.027343l-.277344-.296875c-8.125-8.464844-13.152343-29.6875-14.429687-41.148438-.238281-2.710937-3.636719-42.238281-3.636719-80.703125v-38.3125c0-37.890625 3.304688-76.914062 3.625-80.574219 1.519532-11.636718 6.792969-32.957031 14.71875-41.574218 13.140625-14.453125 26.996094-16.054688 36.160156-17.113282.875-.101562 1.691407-.195312 2.445313-.292968 66.421875-4.757813 165.492187-5.464844 169.046875-5.492188 3.554688.023438 102.589844.734375 168.421875 5.492188.808594.101562 1.691406.203125 2.640625.3125 9.425781 1.074218 23.671875 2.699218 36.746094 16.644531l.121094.128906c8.125 8.464844 13.152343 30.058594 14.429687 41.75.226563 2.558594 3.636719 42.171875 3.636719 80.71875zm0 0"
			/>
		</g>
	</symbol>

	<symbol id="logo" width="173" height="20" viewBox="0 0 173 20">
		<path
			d="M64.4961 0.442871H71.2389L75.5997 7.04804L79.9972 0.442871H86.7399V19.5204H80.0704V10.0739L75.4531 16.5683L70.9824 10.2215V19.4835H64.4961V0.442871Z"
			fill="white"
		/>
		<path
			d="M89.6348 9.9631C89.6348 4.53875 94.0322 0 100.152 0C106.199 0 110.596 4.46494 110.596 9.9631C110.596 15.3875 106.199 19.9262 100.079 19.9262C93.9956 19.9631 89.6348 15.4613 89.6348 9.9631ZM104.073 9.9631C104.073 7.63838 102.387 5.64576 100.042 5.64576C97.6235 5.64576 96.0844 7.60148 96.0844 9.9631C96.0844 12.2878 97.7701 14.2804 100.115 14.2804C102.534 14.2804 104.073 12.3247 104.073 9.9631Z"
			fill="white"
		/>
		<path
			d="M113.381 0.442871H120.05V7.19564H125.511V0.442871H132.18V19.5204H125.511V12.5831H120.05V19.4835H113.381V0.442871Z"
			fill="white"
		/>
		<path
			d="M134.966 9.9631C134.966 4.39114 138.924 0 144.53 0C151.09 0 154.095 4.83395 154.095 10.4428C154.095 10.8487 154.095 11.3653 154.058 11.8081H141.379C141.892 13.8745 143.394 14.9446 145.483 14.9446C147.059 14.9446 148.305 14.3542 149.697 12.9889L153.362 16.0517C151.53 18.3764 148.928 19.9262 145.117 19.9262C139.143 19.9631 134.966 15.9779 134.966 9.9631ZM147.828 8.37638C147.572 6.27306 146.363 4.90775 144.53 4.90775C142.771 4.90775 141.599 6.27306 141.232 8.37638H147.828Z"
			fill="white"
		/>
		<path
			d="M160.654 5.83033H155.12V0.442871H172.857V5.83033H167.323V19.5204H160.69V5.83033H160.654Z"
			fill="white"
		/>
		<path
			d="M0 0.479492H6.66949V7.23226H12.1297V0.479492H18.7992V19.557H12.1297V12.6197H6.66949V19.557H0V0.479492Z"
			fill="url(#paint0_linear)"
		/>
		<path
			d="M21.584 10.0368C21.584 4.46488 25.5417 0.0737305 31.1485 0.0737305C37.708 0.0737305 40.713 4.90768 40.713 10.5165C40.713 10.9224 40.713 11.439 40.6763 11.8819H27.997C28.51 13.9483 30.0125 15.0184 32.1013 15.0184C33.677 15.0184 34.923 14.428 36.3155 13.0627L39.9801 16.1254C38.1478 18.4501 35.5093 19.9999 31.7348 19.9999C25.7982 19.9999 21.584 16.0147 21.584 10.0368ZM34.4466 8.45012C34.2267 6.30989 32.9808 4.98148 31.1851 4.98148C29.4261 4.98148 28.2535 6.34679 27.887 8.45012H34.4466Z"
			fill="url(#paint1_linear)"
		/>
		<path
			d="M47.2727 5.86695H41.7393V0.479492H59.4391V5.86695H53.9056V19.557H47.2727V5.86695Z"
			fill="url(#paint2_linear)"
		/>
		<defs>
			<linearGradient
				id="paint0_linear"
				x1="18.7992"
				y1="0.479493"
				x2="-0.276257"
				y2="19.2766"
				gradientUnits="userSpaceOnUse"
			>
				<stop offset="0.166667" stop-color="#FFBA09" />
				<stop offset="0.898347" stop-color="#EDDA32" />
			</linearGradient>
			<linearGradient
				id="paint1_linear"
				x1="40.713"
				y1="0.0737311"
				x2="20.8034"
				y2="19.1868"
				gradientUnits="userSpaceOnUse"
			>
				<stop offset="0.166667" stop-color="#FFBA09" />
				<stop offset="0.898347" stop-color="#EDDA32" />
			</linearGradient>
			<linearGradient
				id="paint2_linear"
				x1="59.4391"
				y1="0.479493"
				x2="40.415"
				y2="18.1297"
				gradientUnits="userSpaceOnUse"
			>
				<stop offset="0.166667" stop-color="#FFBA09" />
				<stop offset="0.898347" stop-color="#EDDA32" />
			</linearGradient>
		</defs>
	</symbol>
</svg>
